<?xml version="1.0" encoding="UTF-8" ?>
<!DOCTYPE svg PUBLIC "-//W3C//DTD SVG 1.1//EN" "http://www.w3.org/Graphics/SVG/1.1/DTD/svg11.dtd">
<svg width="113pt" height="268pt" viewBox="0 0 113 268" version="1.1" xmlns="http://www.w3.org/2000/svg">
    <path
        fill="#ffffff"
        d=" M 0.00 0.00 L 113.00 0.00 L 113.00 268.00 L 79.55 268.00 C 74.11 266.98 68.55 267.13 63.05 266.76 C 61.44 266.45 60.01 267.11 58.72 268.00 L 58.22 268.00 C 55.45 266.49 51.91 266.56 48.99 267.58 L 48.84 268.00 L 48.29 268.00 C 46.05 266.42 42.60 266.44 40.16 267.58 L 39.83 268.00 L 39.18 268.00 C 38.69 266.44 37.82 266.16 36.57 267.15 L 36.84 268.00 L 0.00 268.00 L 0.00 0.00 Z"/>
    <path
        fill="#dcc9ba"
        d=" M 54.16 2.02 C 56.66 3.54 59.55 5.98 62.62 4.47 C 64.17 4.21 65.83 2.62 67.36 3.73 C 64.10 5.48 60.64 6.81 57.04 7.67 C 58.86 8.20 60.69 8.71 62.42 9.49 C 62.61 10.88 62.57 12.28 62.58 13.67 C 60.19 13.56 57.81 13.44 55.42 13.30 C 55.18 10.76 55.22 8.21 55.15 5.66 C 55.00 5.08 54.71 3.93 54.56 3.35 C 54.46 3.02 54.26 2.35 54.16 2.02 Z"/>
    <path
        fill="#bea39d"
        d=" M 40.42 12.77 C 40.35 9.48 40.90 6.09 42.90 3.39 C 45.23 4.15 47.54 5.34 50.04 5.30 C 51.61 4.79 53.08 4.04 54.56 3.35 C 54.71 3.93 55.00 5.08 55.15 5.66 C 52.53 6.45 49.88 7.10 47.20 7.65 C 48.36 8.07 49.52 8.48 50.68 8.90 L 50.64 9.66 C 50.19 10.78 49.68 11.87 49.17 12.95 C 48.21 13.50 47.28 14.08 46.36 14.70 C 46.01 15.97 46.93 17.18 47.23 18.38 C 46.50 20.65 45.88 22.96 44.90 25.13 C 43.63 26.67 41.71 27.48 40.13 28.66 C 39.63 23.36 40.29 18.07 40.42 12.77 Z"/>
    <path
        fill="#b79c86"
        d=" M 57.04 7.67 C 60.64 6.81 64.10 5.48 67.36 3.73 C 68.22 6.59 69.15 9.44 69.89 12.33 C 66.13 12.15 60.69 14.75 61.90 19.22 C 62.80 23.56 60.25 28.39 56.01 29.85 C 56.03 29.09 56.08 27.55 56.10 26.79 C 56.11 26.03 56.12 24.51 56.12 23.75 C 56.46 25.16 56.85 26.57 57.23 27.97 C 58.37 25.57 59.92 23.30 60.56 20.69 C 60.16 18.36 57.25 17.62 55.64 16.27 C 55.57 15.28 55.50 14.29 55.42 13.30 C 57.81 13.44 60.19 13.56 62.58 13.67 C 62.57 12.28 62.61 10.88 62.42 9.49 C 60.69 8.71 58.86 8.20 57.04 7.67 Z"/>
    <path
        fill="#937767"
        d=" M 47.20 7.65 C 49.88 7.10 52.53 6.45 55.15 5.66 C 55.22 8.21 55.18 10.76 55.42 13.30 C 55.50 14.29 55.57 15.28 55.64 16.27 C 55.73 18.76 55.84 21.26 56.12 23.75 C 56.12 24.51 56.11 26.03 56.10 26.79 C 51.43 23.86 53.98 17.57 54.01 13.11 C 52.95 13.29 51.89 13.46 50.83 13.64 C 50.75 12.32 50.69 10.99 50.64 9.66 L 50.68 8.90 C 49.52 8.48 48.36 8.07 47.20 7.65 Z"/>
    <path fill="#d6c0b1" d=" M 42.00 7.20 C 43.96 7.84 45.92 8.47 47.89 9.10 C 47.49 10.37 47.10 11.64 46.71 12.90 C 45.15 12.79 43.60 12.68 42.04 12.57 C 42.02 10.78 42.01 8.99 42.00 7.20 Z"/>
    <path
        fill="#9d867b"
        d=" M 49.17 12.95 C 49.68 11.87 50.19 10.78 50.64 9.66 C 50.69 10.99 50.75 12.32 50.83 13.64 C 50.54 14.02 49.95 14.78 49.65 15.16 C 49.90 16.38 50.16 17.59 50.38 18.82 C 49.90 19.15 48.93 19.80 48.45 20.12 C 48.01 22.30 48.31 24.94 46.53 26.59 C 44.86 28.36 42.33 28.70 40.14 29.47 L 40.13 28.66 C 41.71 27.48 43.63 26.67 44.90 25.13 C 45.88 22.96 46.50 20.65 47.23 18.38 C 46.93 17.18 46.01 15.97 46.36 14.70 C 47.28 14.08 48.21 13.50 49.17 12.95 Z"/>
    <path
        fill="#957c6a"
        d=" M 61.90 19.22 C 60.69 14.75 66.13 12.15 69.89 12.33 L 68.58 13.25 C 67.38 14.09 66.15 14.93 65.17 16.03 C 65.68 18.41 66.68 20.64 67.75 22.81 C 64.52 25.55 63.10 29.66 60.38 32.81 C 58.91 31.91 57.44 31.01 55.99 30.07 L 56.01 29.85 C 60.25 28.39 62.80 23.56 61.90 19.22 Z"/>
    <path
        fill="#7e6658"
        d=" M 40.42 12.77 C 40.29 18.07 39.63 23.36 40.13 28.66 L 40.14 29.47 C 42.33 28.70 44.86 28.36 46.53 26.59 C 48.31 24.94 48.01 22.30 48.45 20.12 C 48.93 19.80 49.90 19.15 50.38 18.82 C 50.25 21.77 50.14 24.95 48.43 27.48 C 46.71 29.43 44.34 30.65 42.29 32.22 C 40.97 31.11 39.68 29.96 38.48 28.73 C 38.27 28.18 37.85 27.08 37.65 26.53 C 38.40 23.43 40.45 19.68 37.84 16.88 L 37.90 16.32 C 37.97 15.72 38.10 14.51 38.16 13.91 C 38.72 13.62 39.85 13.06 40.42 12.77 Z"/>
    <path
        fill="#694a2d"
        d=" M 50.83 13.64 C 51.89 13.46 52.95 13.29 54.01 13.11 C 53.98 17.57 51.43 23.86 56.10 26.79 C 56.08 27.55 56.03 29.09 56.01 29.85 L 55.99 30.07 C 54.58 29.16 53.19 28.21 51.80 27.27 C 49.27 29.36 46.66 31.53 43.41 32.38 L 42.29 32.22 C 44.34 30.65 46.71 29.43 48.43 27.48 C 50.14 24.95 50.25 21.77 50.38 18.82 C 50.16 17.59 49.90 16.38 49.65 15.16 C 49.95 14.78 50.54 14.02 50.83 13.64 Z"/>
    <path fill="#735036" d=" M 65.17 16.03 C 66.15 14.93 67.38 14.09 68.58 13.25 L 70.27 13.34 C 70.39 15.91 70.56 18.48 70.83 21.03 C 71.20 22.84 71.45 24.67 71.61 26.50 C 70.29 25.31 68.97 24.11 67.75 22.81 C 66.68 20.64 65.68 18.41 65.17 16.03 Z"/>
    <path
        fill="#827e87"
        d=" M 36.40 24.00 C 36.50 21.49 35.88 18.22 37.90 16.32 L 37.84 16.88 C 37.44 20.06 36.46 23.39 37.65 26.53 C 37.85 27.08 38.27 28.18 38.48 28.73 C 37.79 31.86 37.35 35.05 37.53 38.26 C 37.75 41.32 38.01 44.37 38.11 47.44 C 38.14 48.13 38.20 49.50 38.22 50.19 C 37.96 51.19 37.65 52.18 37.29 53.15 C 37.33 51.74 37.30 50.33 37.23 48.93 L 37.15 47.74 C 36.76 39.83 37.11 31.90 36.40 24.00 Z"/>
    <path fill="#d7c8c9" d=" M 40.95 15.72 C 42.89 16.13 44.55 17.15 45.92 18.56 C 43.06 20.08 41.86 22.95 41.28 25.99 C 40.92 22.58 40.73 19.15 40.95 15.72 Z"/>
    <path fill="#50372f" d=" M 37.84 16.88 C 40.45 19.68 38.40 23.43 37.65 26.53 C 36.46 23.39 37.44 20.06 37.84 16.88 Z"/>
    <path fill="#e5d7d1" d=" M 55.64 16.27 C 57.25 17.62 60.16 18.36 60.56 20.69 C 59.92 23.30 58.37 25.57 57.23 27.97 C 56.85 26.57 56.46 25.16 56.12 23.75 C 55.84 21.26 55.73 18.76 55.64 16.27 Z"/>
    <path
        fill="#573929"
        d=" M 60.38 32.81 C 63.10 29.66 64.52 25.55 67.75 22.81 C 68.97 24.11 70.29 25.31 71.61 26.50 C 71.52 29.97 71.05 33.43 71.18 36.90 C 71.17 38.76 71.08 40.62 70.93 42.47 C 70.46 40.94 69.98 39.40 69.55 37.85 C 69.65 37.35 69.85 36.34 69.96 35.84 C 70.07 35.32 70.30 34.29 70.41 33.77 C 66.79 33.64 63.18 33.51 59.56 33.30 L 60.38 32.81 Z"/>
    <path fill="#432c1c" d=" M 43.41 32.38 C 46.66 31.53 49.27 29.36 51.80 27.27 C 53.19 28.21 54.58 29.16 55.99 30.07 C 57.44 31.01 58.91 31.91 60.38 32.81 L 59.56 33.30 C 54.18 32.84 48.76 33.11 43.41 32.38 Z"/>
    <path
        fill="#1a0a07"
        d=" M 38.48 28.73 C 39.68 29.96 40.97 31.11 42.29 32.22 L 43.41 32.38 C 48.76 33.11 54.18 32.84 59.56 33.30 C 63.18 33.51 66.79 33.64 70.41 33.77 C 70.30 34.29 70.07 35.32 69.96 35.84 C 68.19 36.71 66.37 37.46 64.56 38.22 C 63.92 42.18 63.69 46.27 64.93 50.15 C 65.35 52.00 65.83 53.83 66.22 55.69 C 66.08 55.96 65.81 56.50 65.67 56.77 C 64.78 56.75 63.88 56.74 62.99 56.70 L 62.53 56.66 C 56.79 56.05 51.01 55.77 45.26 55.28 C 45.26 52.96 45.27 50.65 45.26 48.33 C 45.70 48.52 46.58 48.89 47.02 49.08 C 46.85 49.87 46.67 50.65 46.50 51.43 C 47.00 51.47 48.00 51.54 48.50 51.58 C 53.48 51.96 58.60 52.21 63.44 50.70 C 59.16 48.16 53.91 49.47 49.18 49.30 C 52.00 47.35 55.45 47.50 58.71 47.52 C 60.07 45.61 61.42 43.68 62.76 41.76 C 62.32 40.91 61.87 40.07 61.43 39.23 C 61.74 38.97 62.36 38.46 62.68 38.21 C 60.04 38.22 57.40 38.24 54.77 38.25 C 54.68 38.64 54.51 39.43 54.42 39.82 C 53.89 39.84 52.83 39.89 52.31 39.92 C 52.07 39.30 51.59 38.07 51.35 37.46 C 46.74 37.66 42.15 38.26 37.53 38.26 C 37.35 35.05 37.79 31.86 38.48 28.73 Z"/>
    <path
        fill="#3d1906"
        d=" M 64.56 38.22 C 66.37 37.46 68.19 36.71 69.96 35.84 C 69.85 36.34 69.65 37.35 69.55 37.85 C 69.17 39.03 68.71 40.19 68.26 41.34 C 67.22 41.94 66.19 42.54 65.16 43.14 C 65.06 44.76 64.95 46.39 64.90 48.01 C 64.91 48.55 64.92 49.61 64.93 50.15 C 63.69 46.27 63.92 42.18 64.56 38.22 Z"/>
    <path
        fill="#30160e"
        d=" M 37.53 38.26 C 42.15 38.26 46.74 37.66 51.35 37.46 C 51.59 38.07 52.07 39.30 52.31 39.92 C 49.90 40.03 47.48 40.12 45.07 40.20 C 44.95 42.09 44.89 43.98 44.60 45.85 C 42.62 46.94 40.30 47.05 38.11 47.44 C 38.01 44.37 37.75 41.32 37.53 38.26 Z"/>
    <path
        fill="#90777a"
        d=" M 71.18 36.90 C 72.24 40.47 71.83 44.32 72.95 47.84 C 74.94 49.90 74.71 53.00 73.73 55.48 L 73.12 56.82 C 72.14 54.54 71.11 52.26 70.41 49.87 L 70.47 48.76 C 70.58 46.66 70.76 44.57 70.93 42.47 C 71.08 40.62 71.17 38.76 71.18 36.90 Z"/>
    <path
        fill="#472716"
        d=" M 54.77 38.25 C 57.40 38.24 60.04 38.22 62.68 38.21 C 62.36 38.46 61.74 38.97 61.43 39.23 C 61.87 40.07 62.32 40.91 62.76 41.76 C 61.42 43.68 60.07 45.61 58.71 47.52 C 55.45 47.50 52.00 47.35 49.18 49.30 L 48.40 49.65 C 48.06 49.51 47.37 49.23 47.02 49.08 C 46.58 48.89 45.70 48.52 45.26 48.33 C 45.27 50.65 45.26 52.96 45.26 55.28 C 45.26 55.79 45.27 56.81 45.27 57.31 C 42.92 57.46 40.61 57.98 38.41 58.84 C 38.37 58.17 38.34 57.50 38.32 56.83 C 40.39 56.13 42.44 55.39 44.49 54.62 C 42.23 53.42 39.66 52.45 38.22 50.19 C 38.20 49.50 38.14 48.13 38.11 47.44 C 40.30 47.05 42.62 46.94 44.60 45.85 C 44.89 43.98 44.95 42.09 45.07 40.20 C 47.48 40.12 49.90 40.03 52.31 39.92 C 52.83 39.89 53.89 39.84 54.42 39.82 C 54.51 39.43 54.68 38.64 54.77 38.25 Z"/>
    <path
        fill="#703c1e"
        d=" M 68.26 41.34 C 68.71 40.19 69.17 39.03 69.55 37.85 C 69.98 39.40 70.46 40.94 70.93 42.47 C 70.76 44.57 70.58 46.66 70.47 48.76 C 68.61 48.51 66.76 48.26 64.90 48.01 C 64.95 46.39 65.06 44.76 65.16 43.14 C 66.19 42.54 67.22 41.94 68.26 41.34 Z"/>
    <path
        fill="#775150"
        d=" M 6.37 46.04 C 10.20 44.69 14.28 44.40 18.30 44.27 C 18.89 45.69 19.89 47.07 19.75 48.67 C 19.54 50.16 19.23 51.63 18.86 53.08 C 18.28 52.30 17.70 51.52 17.11 50.74 C 16.25 50.96 15.38 51.18 14.52 51.40 C 14.02 49.64 13.52 47.88 13.03 46.12 C 10.81 46.08 8.59 46.02 6.37 46.04 Z"/>
    <path
        fill="#66382a"
        d=" M 2.53 47.78 C 3.79 47.18 5.04 46.50 6.37 46.04 C 8.59 46.02 10.81 46.08 13.03 46.12 C 13.52 47.88 14.02 49.64 14.52 51.40 C 15.38 51.18 16.25 50.96 17.11 50.74 C 17.70 51.52 18.28 52.30 18.86 53.08 C 18.75 53.48 18.51 54.29 18.39 54.69 C 14.24 54.34 10.07 56.13 5.99 54.88 C 4.67 54.55 3.35 54.19 2.04 53.81 C 2.09 51.80 2.28 49.79 2.53 47.78 Z"/>
    <path fill="#0f2845" d=" M 19.75 48.67 C 21.92 48.97 24.17 49.13 25.37 46.89 C 24.86 49.17 23.36 50.85 21.46 52.09 C 21.15 51.50 20.52 50.32 20.21 49.72 L 19.75 48.67 Z"/>
    <path
        fill="#12121a"
        d=" M 25.37 46.89 L 25.51 47.57 C 25.82 49.05 26.14 50.53 26.47 52.01 C 29.81 52.02 33.42 52.40 36.32 50.41 C 33.22 49.95 30.09 49.67 26.96 49.41 C 30.38 49.22 33.80 49.06 37.23 48.93 C 37.30 50.33 37.33 51.74 37.29 53.15 C 37.08 53.49 36.65 54.17 36.43 54.51 C 30.96 54.76 25.44 54.92 20.05 53.78 C 20.14 52.43 20.19 51.08 20.21 49.72 C 20.52 50.32 21.15 51.50 21.46 52.09 C 23.36 50.85 24.86 49.17 25.37 46.89 Z"/>
    <path fill="#0f233d" d=" M 25.51 47.57 C 29.39 47.78 33.27 47.91 37.15 47.74 L 37.23 48.93 C 33.80 49.06 30.38 49.22 26.96 49.41 C 30.09 49.67 33.22 49.95 36.32 50.41 C 33.42 52.40 29.81 52.02 26.47 52.01 C 26.14 50.53 25.82 49.05 25.51 47.57 Z"/>
    <path fill="#532d17" d=" M 64.90 48.01 C 66.76 48.26 68.61 48.51 70.47 48.76 L 70.41 49.87 C 70.62 52.83 68.83 54.72 66.22 55.69 C 65.83 53.83 65.35 52.00 64.93 50.15 C 64.92 49.61 64.91 48.55 64.90 48.01 Z"/>
    <path
        fill="#1e1319"
        d=" M 18.86 53.08 C 19.23 51.63 19.54 50.16 19.75 48.67 L 20.21 49.72 C 20.19 51.08 20.14 52.43 20.05 53.78 L 19.92 55.06 C 19.73 56.29 19.50 57.51 19.19 58.72 C 14.72 57.33 10.05 57.87 5.51 58.50 C 4.84 58.46 3.51 58.37 2.84 58.32 C 2.59 56.82 2.32 55.31 2.04 53.81 C 3.35 54.19 4.67 54.55 5.99 54.88 C 10.07 56.13 14.24 54.34 18.39 54.69 C 18.51 54.29 18.75 53.48 18.86 53.08 Z"/>
    <path fill="#c1cadf" d=" M 47.02 49.08 C 47.37 49.23 48.06 49.51 48.40 49.65 C 48.43 50.14 48.48 51.10 48.50 51.58 C 48.00 51.54 47.00 51.47 46.50 51.43 C 46.67 50.65 46.85 49.87 47.02 49.08 Z"/>
    <path fill="#10253a" d=" M 48.40 49.65 L 49.18 49.30 C 53.91 49.47 59.16 48.16 63.44 50.70 C 58.60 52.21 53.48 51.96 48.50 51.58 C 48.48 51.10 48.43 50.14 48.40 49.65 Z"/>
    <path
        fill="#563634"
        d=" M 38.22 50.19 C 39.66 52.45 42.23 53.42 44.49 54.62 C 42.44 55.39 40.39 56.13 38.32 56.83 C 38.34 57.50 38.37 58.17 38.41 58.84 C 39.28 59.91 40.42 60.67 41.55 61.41 C 40.43 62.55 39.30 63.69 38.22 64.87 C 38.17 66.36 38.21 67.86 38.23 69.35 C 37.70 70.67 37.16 71.98 36.69 73.32 C 38.52 74.50 39.61 76.34 40.19 78.38 C 38.48 82.73 38.14 87.42 37.86 92.04 C 34.15 92.24 30.40 92.41 26.74 91.65 C 30.22 91.53 33.68 91.11 37.16 90.89 C 37.25 88.69 37.34 86.49 37.39 84.29 C 37.42 82.70 37.44 81.12 37.43 79.54 C 35.24 78.16 34.72 74.72 36.45 72.85 C 35.90 72.34 35.34 71.83 34.78 71.33 C 31.73 71.46 28.69 71.72 25.68 72.18 C 24.92 70.16 22.24 71.11 20.62 70.91 C 19.86 72.67 19.71 75.98 17.03 75.69 C 12.55 75.59 7.97 74.92 3.80 73.19 C 0.80 69.81 2.28 64.86 2.12 60.76 C 3.06 62.83 4.76 64.31 6.59 65.57 C 6.80 64.95 7.22 63.70 7.43 63.07 C 10.34 63.36 13.47 63.41 16.03 65.03 C 17.52 66.14 18.70 67.61 20.05 68.88 C 21.03 69.58 22.04 70.23 23.09 70.82 C 23.77 70.64 25.12 70.28 25.80 70.10 C 29.12 70.53 32.48 70.54 35.82 70.62 C 36.39 69.97 36.93 69.30 37.46 68.63 L 37.55 67.26 C 37.48 66.26 37.33 64.28 37.26 63.28 C 36.22 60.85 35.49 58.31 35.78 55.64 C 32.22 55.63 28.66 55.90 25.14 56.36 C 23.95 54.37 21.85 54.80 19.92 55.06 L 20.05 53.78 C 25.44 54.92 30.96 54.76 36.43 54.51 C 36.65 54.17 37.08 53.49 37.29 53.15 C 37.65 52.18 37.96 51.19 38.22 50.19 Z"/>
    <path
        fill="#77462b"
        d=" M 70.41 49.87 C 71.11 52.26 72.14 54.54 73.12 56.82 C 73.43 59.27 73.80 61.72 74.21 64.15 C 71.49 65.02 67.97 65.38 67.68 68.91 C 69.64 69.23 71.61 69.53 73.59 69.83 C 73.45 70.44 73.17 71.64 73.03 72.25 C 71.35 72.75 69.66 73.25 68.01 73.84 C 67.37 69.72 67.96 65.44 66.69 61.43 C 66.48 61.11 66.05 60.45 65.84 60.12 C 64.94 58.94 63.99 57.79 62.99 56.70 C 63.88 56.74 64.78 56.75 65.67 56.77 C 65.81 56.50 66.08 55.96 66.22 55.69 C 68.83 54.72 70.62 52.83 70.41 49.87 Z"/>
    <path
        fill="#4a3839"
        d=" M 91.24 54.22 C 93.33 51.45 96.99 52.11 99.97 52.49 C 103.13 53.07 106.56 54.07 108.62 56.72 C 108.55 57.56 108.42 59.25 108.35 60.10 C 106.81 61.54 105.30 63.00 103.80 64.48 C 103.27 64.43 102.73 64.38 102.20 64.36 C 100.61 61.16 99.15 57.84 96.91 55.03 C 95.60 53.15 93.12 54.20 91.24 54.22 Z"/>
    <path
        fill="#7f5555"
        d=" M 90.84 54.26 L 91.24 54.22 C 93.12 54.20 95.60 53.15 96.91 55.03 C 99.15 57.84 100.61 61.16 102.20 64.36 C 99.47 64.30 96.73 64.32 94.00 64.28 C 93.07 62.90 92.19 61.48 91.39 60.03 C 91.25 59.27 90.97 57.76 90.83 57.01 C 90.83 56.32 90.84 54.95 90.84 54.26 Z"/>
    <path
        fill="#ffffff"
        d=" M 19.92 55.06 C 21.85 54.80 23.95 54.37 25.14 56.36 C 28.66 55.90 32.22 55.63 35.78 55.64 C 35.49 58.31 36.22 60.85 37.26 63.28 C 33.27 63.46 29.25 63.47 25.31 62.76 C 24.41 64.62 22.44 64.20 20.77 64.16 C 20.24 62.38 19.63 60.62 18.94 58.89 C 18.09 60.18 16.98 65.45 16.62 60.23 C 16.00 60.14 14.77 59.97 14.15 59.88 C 15.85 59.59 17.54 59.23 19.19 58.72 C 19.50 57.51 19.73 56.29 19.92 55.06 Z"/>
    <path
        fill="#17293f"
        d=" M 45.26 55.28 C 51.01 55.77 56.79 56.05 62.53 56.66 C 62.44 57.29 62.25 58.55 62.15 59.19 C 58.38 58.96 54.52 58.17 50.78 58.99 C 50.44 59.59 49.78 60.78 49.44 61.38 C 49.34 61.39 49.14 61.40 49.04 61.41 C 48.97 60.80 48.83 59.57 48.76 58.96 C 47.85 58.67 46.94 58.37 46.02 58.07 C 45.95 59.24 45.87 60.41 45.78 61.58 L 45.54 61.86 C 45.41 60.34 45.32 58.83 45.27 57.31 C 45.27 56.81 45.26 55.79 45.26 55.28 Z"/>
    <path
        fill="#876559"
        d=" M 73.12 56.82 L 73.73 55.48 C 74.19 56.93 74.61 58.39 74.94 59.88 C 75.08 60.49 75.36 61.72 75.50 62.33 C 79.83 62.89 84.23 62.86 88.56 62.25 L 87.68 62.86 C 86.75 63.25 85.83 63.64 84.91 64.06 C 81.79 63.74 78.66 63.45 75.54 63.13 C 75.97 66.42 75.71 69.73 75.70 73.03 C 75.87 75.23 76.15 77.42 76.40 79.61 C 79.77 79.70 83.12 80.09 86.47 80.40 C 86.96 80.25 87.92 79.97 88.40 79.82 C 88.10 80.19 87.51 80.93 87.21 81.30 C 83.49 81.32 79.79 80.72 76.07 80.61 C 75.72 83.81 78.21 86.63 77.17 89.79 C 75.94 94.29 77.13 98.95 76.50 103.51 C 75.96 100.80 75.72 98.04 75.75 95.28 C 75.81 92.03 75.28 88.82 74.84 85.61 C 74.62 81.97 74.69 78.31 74.52 74.67 C 72.37 74.69 70.23 74.72 68.08 74.75 L 68.01 73.84 C 69.66 73.25 71.35 72.75 73.03 72.25 C 73.17 71.64 73.45 70.44 73.59 69.83 C 71.61 69.53 69.64 69.23 67.68 68.91 C 67.97 65.38 71.49 65.02 74.21 64.15 C 73.80 61.72 73.43 59.27 73.12 56.82 Z"/>
    <path fill="#1c2b34" d=" M 73.73 55.48 C 77.70 56.03 81.71 55.56 85.70 55.63 C 85.95 55.97 86.46 56.65 86.71 56.99 L 87.78 57.38 C 88.79 57.82 89.92 58.31 89.90 59.61 C 84.99 60.64 79.92 59.03 74.94 59.88 C 74.61 58.39 74.19 56.93 73.73 55.48 Z"/>
    <path
        fill="#8b6244"
        d=" M 38.41 58.84 C 40.61 57.98 42.92 57.46 45.27 57.31 C 45.32 58.83 45.41 60.34 45.54 61.86 C 45.56 62.20 45.61 62.90 45.63 63.25 C 43.16 63.79 40.68 64.31 38.22 64.87 C 39.30 63.69 40.43 62.55 41.55 61.41 C 40.42 60.67 39.28 59.91 38.41 58.84 Z"/>
    <path fill="#080c16" d=" M 62.53 56.66 L 62.99 56.70 C 63.99 57.79 64.94 58.94 65.84 60.12 C 60.63 62.43 54.92 61.19 49.44 61.38 C 49.78 60.78 50.44 59.59 50.78 58.99 C 54.52 58.17 58.38 58.96 62.15 59.19 C 62.25 58.55 62.44 57.29 62.53 56.66 Z"/>
    <path
        fill="#131929"
        d=" M 87.78 57.38 C 88.54 57.29 90.07 57.10 90.83 57.01 C 90.97 57.76 91.25 59.27 91.39 60.03 C 91.20 60.32 90.82 60.91 90.63 61.21 C 90.11 61.47 89.08 61.99 88.56 62.25 C 84.23 62.86 79.83 62.89 75.50 62.33 C 75.36 61.72 75.08 60.49 74.94 59.88 C 79.92 59.03 84.99 60.64 89.90 59.61 C 89.92 58.31 88.79 57.82 87.78 57.38 Z"/>
    <path fill="#8e727b" d=" M 108.62 56.72 C 109.35 59.85 108.83 63.02 108.35 66.14 C 106.85 65.55 105.34 64.96 103.80 64.48 C 105.30 63.00 106.81 61.54 108.35 60.10 C 108.42 59.25 108.55 57.56 108.62 56.72 Z"/>
    <path
        fill="#3b1f1c"
        d=" M 5.51 58.50 C 10.05 57.87 14.72 57.33 19.19 58.72 C 17.54 59.23 15.85 59.59 14.15 59.88 C 14.77 59.97 16.00 60.14 16.62 60.23 C 16.98 65.45 18.09 60.18 18.94 58.89 C 19.63 60.62 20.24 62.38 20.77 64.16 C 20.60 65.38 20.42 66.59 20.22 67.80 L 20.05 68.88 C 18.70 67.61 17.52 66.14 16.03 65.03 C 13.47 63.41 10.34 63.36 7.43 63.07 C 7.22 63.70 6.80 64.95 6.59 65.57 C 4.76 64.31 3.06 62.83 2.12 60.76 C 3.62 60.18 5.17 59.74 6.73 59.34 C 6.43 59.13 5.81 58.71 5.51 58.50 Z"/>
    <path fill="#160911" d=" M 46.02 58.07 C 46.94 58.37 47.85 58.67 48.76 58.96 C 48.83 59.57 48.97 60.80 49.04 61.41 C 48.22 61.45 46.60 61.53 45.78 61.58 C 45.87 60.41 45.95 59.24 46.02 58.07 Z"/>
    <path
        fill="#431701"
        d=" M 49.44 61.38 C 54.92 61.19 60.63 62.43 65.84 60.12 C 66.05 60.45 66.48 61.11 66.69 61.43 C 65.81 62.20 64.94 62.97 64.07 63.73 C 59.21 63.73 54.37 63.99 49.53 64.29 C 48.69 64.33 47.01 64.41 46.18 64.45 C 46.04 64.15 45.77 63.55 45.63 63.25 C 45.61 62.90 45.56 62.20 45.54 61.86 L 45.78 61.58 C 46.60 61.53 48.22 61.45 49.04 61.41 C 49.14 61.40 49.34 61.39 49.44 61.38 Z"/>
    <path
        fill="#3c2d32"
        d=" M 91.39 60.03 C 92.19 61.48 93.07 62.90 94.00 64.28 C 96.04 65.12 98.17 65.72 100.29 66.33 C 99.93 68.40 100.12 70.49 100.46 72.55 C 97.69 73.85 95.31 75.77 93.19 77.96 C 93.45 75.86 93.44 73.74 93.19 71.64 C 93.52 70.89 93.86 70.15 94.21 69.41 C 91.94 68.00 91.05 65.53 90.09 63.20 C 89.49 63.12 88.29 62.94 87.68 62.86 L 88.56 62.25 C 89.08 61.99 90.11 61.47 90.63 61.21 C 90.82 60.91 91.20 60.32 91.39 60.03 Z"/>
    <path
        fill="#33231b"
        d=" M 66.69 61.43 C 67.96 65.44 67.37 69.72 68.01 73.84 L 68.08 74.75 C 68.27 76.79 68.45 78.83 68.62 80.88 C 68.80 82.90 69.00 84.92 69.24 86.94 C 69.29 87.44 69.38 88.44 69.43 88.94 C 68.54 88.40 67.64 87.86 66.75 87.32 C 67.39 88.79 68.03 90.25 68.68 91.71 C 69.15 93.40 69.57 95.12 70.00 96.83 C 69.12 97.21 68.24 97.59 67.37 97.98 C 66.13 92.24 66.12 86.35 65.22 80.57 C 65.14 80.08 64.98 79.09 64.90 78.60 C 64.81 78.11 64.64 77.12 64.55 76.62 C 64.41 76.07 64.12 74.97 63.98 74.41 C 64.44 72.84 64.87 71.26 65.23 69.66 C 64.92 67.67 64.48 65.70 64.07 63.73 C 64.94 62.97 65.81 62.20 66.69 61.43 Z"/>
    <path fill="#19263b" d=" M 25.31 62.76 C 29.25 63.47 33.27 63.46 37.26 63.28 C 37.33 64.28 37.48 66.26 37.55 67.26 C 31.80 68.33 25.96 66.84 20.22 67.80 C 20.42 66.59 20.60 65.38 20.77 64.16 C 22.44 64.20 24.41 64.62 25.31 62.76 Z"/>
    <path
        fill="#947d6e"
        d=" M 38.22 64.87 C 40.68 64.31 43.16 63.79 45.63 63.25 C 45.51 63.85 45.27 65.05 45.14 65.65 C 44.20 70.02 44.28 74.51 44.42 78.96 C 43.79 79.22 42.52 79.75 41.88 80.02 C 42.59 76.72 42.19 73.38 40.71 70.35 C 40.95 69.74 41.20 69.14 41.44 68.53 C 40.36 67.32 39.28 66.10 38.22 64.87 Z"/>
    <path
        fill="#ffffff"
        d=" M 75.54 63.13 C 78.66 63.45 81.79 63.74 84.91 64.06 C 85.83 63.64 86.75 63.25 87.68 62.86 C 88.29 62.94 89.49 63.12 90.09 63.20 C 91.05 65.53 91.94 68.00 94.21 69.41 C 93.86 70.15 93.52 70.89 93.19 71.64 C 92.95 72.18 92.48 73.25 92.25 73.79 C 91.29 73.96 89.36 74.30 88.40 74.48 C 88.18 73.99 87.72 73.02 87.50 72.53 C 83.57 72.85 79.63 72.82 75.70 73.03 C 75.71 69.73 75.97 66.42 75.54 63.13 Z"/>
    <path
        fill="#1e1319"
        d=" M 45.63 63.25 C 45.77 63.55 46.04 64.15 46.18 64.45 C 46.47 65.89 46.65 67.34 46.88 68.78 L 47.11 68.80 C 48.48 69.08 49.82 68.50 51.18 68.79 C 51.41 68.96 51.86 69.29 52.08 69.46 C 50.66 69.81 49.25 70.20 47.86 70.65 L 47.75 69.09 L 46.30 69.34 C 46.66 72.85 46.93 76.38 47.03 79.91 C 46.63 79.52 45.83 78.75 45.43 78.36 C 45.44 74.12 45.51 69.88 45.14 65.65 C 45.27 65.05 45.51 63.85 45.63 63.25 Z"/>
    <path fill="#d2dbee" d=" M 46.18 64.45 C 47.01 64.41 48.69 64.33 49.53 64.29 C 48.72 65.79 47.93 67.31 47.11 68.80 L 46.88 68.78 C 46.65 67.34 46.47 65.89 46.18 64.45 Z"/>
    <path
        fill="#081e2e"
        d=" M 49.53 64.29 C 54.37 63.99 59.21 63.73 64.07 63.73 C 64.48 65.70 64.92 67.67 65.23 69.66 C 60.85 69.47 56.46 69.57 52.08 69.46 C 51.86 69.29 51.41 68.96 51.18 68.79 C 49.82 68.50 48.48 69.08 47.11 68.80 C 47.93 67.31 48.72 65.79 49.53 64.29 Z"/>
    <path
        fill="#654149"
        d=" M 94.00 64.28 C 96.73 64.32 99.47 64.30 102.20 64.36 C 102.73 64.38 103.27 64.43 103.80 64.48 C 105.34 64.96 106.85 65.55 108.35 66.14 C 107.33 67.89 105.23 68.23 103.52 68.97 C 103.39 69.02 103.15 69.12 103.02 69.16 C 102.66 69.96 102.30 70.75 101.97 71.56 C 104.90 72.48 107.86 73.33 110.84 74.09 C 110.70 77.26 110.27 80.41 109.47 83.48 C 104.93 85.33 99.92 85.82 95.05 85.70 C 92.02 86.13 92.37 82.37 91.76 80.45 C 90.64 80.23 89.52 80.02 88.40 79.82 C 90.02 79.26 91.62 78.65 93.19 77.96 C 95.31 75.77 97.69 73.85 100.46 72.55 C 100.12 70.49 99.93 68.40 100.29 66.33 C 98.17 65.72 96.04 65.12 94.00 64.28 Z"/>
    <path
        fill="#71534b"
        d=" M 38.23 69.35 C 38.21 67.86 38.17 66.36 38.22 64.87 C 39.28 66.10 40.36 67.32 41.44 68.53 C 41.20 69.14 40.95 69.74 40.71 70.35 C 42.19 73.38 42.59 76.72 41.88 80.02 C 41.38 84.63 41.35 89.28 40.88 93.90 C 40.50 96.46 41.87 98.78 42.58 101.14 L 42.35 101.88 C 40.73 102.12 39.12 102.45 37.52 102.81 L 37.20 102.88 C 37.36 99.34 37.36 95.80 37.09 92.27 C 32.73 91.97 28.08 93.88 23.96 91.98 C 23.19 91.99 21.67 92.00 20.91 92.00 C 20.51 93.05 20.10 94.10 19.68 95.15 C 19.52 89.29 18.63 83.44 16.45 77.98 C 18.94 79.24 19.96 82.29 20.43 84.84 C 20.46 86.74 20.42 88.64 20.38 90.54 C 22.51 90.85 24.62 91.25 26.74 91.65 C 30.40 92.41 34.15 92.24 37.86 92.04 C 38.14 87.42 38.48 82.73 40.19 78.38 C 39.61 76.34 38.52 74.50 36.69 73.32 C 37.16 71.98 37.70 70.67 38.23 69.35 Z"/>
    <path
        fill="#503e37"
        d=" M 44.42 78.96 C 44.28 74.51 44.20 70.02 45.14 65.65 C 45.51 69.88 45.44 74.12 45.43 78.36 C 45.83 78.75 46.63 79.52 47.03 79.91 C 47.89 87.19 47.80 94.54 48.48 101.83 C 46.44 101.82 44.39 101.79 42.35 101.88 L 42.58 101.14 C 45.49 94.12 44.21 86.34 44.42 78.96 Z"/>
    <path
        fill="#160d12"
        d=" M 20.22 67.80 C 25.96 66.84 31.80 68.33 37.55 67.26 L 37.46 68.63 C 36.93 69.30 36.39 69.97 35.82 70.62 C 32.48 70.54 29.12 70.53 25.80 70.10 C 25.12 70.28 23.77 70.64 23.09 70.82 C 22.04 70.23 21.03 69.58 20.05 68.88 L 20.22 67.80 Z"/>
    <path fill="#594f63" d=" M 103.02 69.16 C 103.15 69.12 103.39 69.02 103.52 68.97 C 106.49 69.87 111.19 69.92 110.84 74.09 C 107.86 73.33 104.90 72.48 101.97 71.56 C 102.30 70.75 102.66 69.96 103.02 69.16 Z"/>
    <path
        fill="#8e838a"
        d=" M 46.30 69.34 L 47.75 69.09 L 47.86 70.65 L 47.98 72.21 C 50.92 72.50 53.89 72.59 56.83 72.26 L 56.58 72.34 C 55.38 72.47 54.18 72.61 52.98 72.74 C 53.20 74.73 53.41 76.73 53.74 78.71 L 54.02 79.98 C 54.44 81.86 54.83 83.75 55.14 85.66 C 55.35 87.32 55.50 88.99 55.64 90.66 L 55.74 91.74 L 54.87 92.06 L 55.23 91.51 C 54.94 89.27 54.55 87.04 54.08 84.84 C 53.73 83.09 53.42 81.34 53.14 79.58 C 52.96 78.44 52.80 77.30 52.70 76.15 C 52.64 75.29 52.53 73.58 52.47 72.72 C 50.91 72.59 49.35 72.46 47.79 72.34 C 47.90 73.89 48.01 75.44 48.14 77.00 C 48.35 79.36 48.66 81.72 48.82 84.09 L 48.82 84.90 C 48.80 86.99 48.87 89.09 48.99 91.18 C 49.05 91.91 49.16 93.36 49.22 94.09 C 49.34 95.41 49.49 96.73 49.63 98.05 C 49.77 99.30 49.90 100.56 50.02 101.82 C 49.63 101.82 48.87 101.82 48.48 101.83 C 47.80 94.54 47.89 87.19 47.03 79.91 C 46.93 76.38 46.66 72.85 46.30 69.34 Z"/>
    <path fill="#653a1e" d=" M 47.86 70.65 C 49.25 70.20 50.66 69.81 52.08 69.46 C 53.76 71.03 56.08 71.27 58.22 71.79 C 57.87 71.91 57.18 72.14 56.83 72.26 C 53.89 72.59 50.92 72.50 47.98 72.21 L 47.86 70.65 Z"/>
    <path
        fill="#3d1b02"
        d=" M 52.08 69.46 C 56.46 69.57 60.85 69.47 65.23 69.66 C 64.87 71.26 64.44 72.84 63.98 74.41 C 63.55 74.31 62.71 74.11 62.29 74.00 C 60.36 73.51 58.48 72.89 56.58 72.34 L 56.83 72.26 C 57.18 72.14 57.87 71.91 58.22 71.79 C 56.08 71.27 53.76 71.03 52.08 69.46 Z"/>
    <path
        fill="#18202d"
        d=" M 75.70 73.03 C 79.63 72.82 83.57 72.85 87.50 72.53 C 87.72 73.02 88.18 73.99 88.40 74.48 C 89.36 74.30 91.29 73.96 92.25 73.79 C 92.48 73.25 92.95 72.18 93.19 71.64 C 93.44 73.74 93.45 75.86 93.19 77.96 C 91.62 78.65 90.02 79.26 88.40 79.82 C 87.92 79.97 86.96 80.25 86.47 80.40 C 83.12 80.09 79.77 79.70 76.40 79.61 C 76.15 77.42 75.87 75.23 75.70 73.03 Z"/>
    <path fill="#131929" d=" M 47.79 72.34 C 49.35 72.46 50.91 72.59 52.47 72.72 C 52.53 73.58 52.64 75.29 52.70 76.15 C 51.18 76.43 49.66 76.72 48.14 77.00 C 48.01 75.44 47.90 73.89 47.79 72.34 Z"/>
    <path
        fill="#0a182f"
        d=" M 52.98 72.74 C 54.18 72.61 55.38 72.47 56.58 72.34 C 58.48 72.89 60.36 73.51 62.29 74.00 C 61.18 75.46 63.04 77.20 64.55 76.62 C 64.64 77.12 64.81 78.11 64.90 78.60 C 61.17 78.56 57.45 78.60 53.74 78.71 C 53.41 76.73 53.20 74.73 52.98 72.74 Z"/>
    <path fill="#3f4852" d=" M 62.29 74.00 C 62.71 74.11 63.55 74.31 63.98 74.41 C 64.12 74.97 64.41 76.07 64.55 76.62 C 63.04 77.20 61.18 75.46 62.29 74.00 Z"/>
    <path fill="#613f32" d=" M 68.08 74.75 C 70.23 74.72 72.37 74.69 74.52 74.67 C 74.31 76.33 74.10 77.99 73.90 79.65 C 72.14 80.06 70.38 80.47 68.62 80.88 C 68.45 78.83 68.27 76.79 68.08 74.75 Z"/>
    <path
        fill="#7a5340"
        d=" M 74.52 74.67 C 74.69 78.31 74.62 81.97 74.84 85.61 C 73.73 85.85 72.62 86.09 71.51 86.33 C 71.18 87.91 70.85 89.49 70.51 91.07 C 70.08 89.69 69.63 88.33 69.24 86.94 C 69.00 84.92 68.80 82.90 68.62 80.88 C 70.38 80.47 72.14 80.06 73.90 79.65 C 74.10 77.99 74.31 76.33 74.52 74.67 Z"/>
    <path fill="#170002" d=" M 48.14 77.00 C 49.66 76.72 51.18 76.43 52.70 76.15 C 52.80 77.30 52.96 78.44 53.14 79.58 C 51.82 79.65 50.51 79.73 49.19 79.80 C 49.05 81.23 48.93 82.66 48.82 84.09 C 48.66 81.72 48.35 79.36 48.14 77.00 Z"/>
    <path
        fill="#4f2719"
        d=" M 8.16 78.64 C 10.86 78.11 13.58 77.71 16.32 77.61 L 16.45 77.98 C 18.63 83.44 19.52 89.29 19.68 95.15 C 19.41 96.29 19.03 97.40 18.56 98.48 C 13.59 98.99 8.19 98.97 3.78 96.31 C 1.58 91.40 1.94 85.53 3.13 80.36 C 5.60 82.65 3.62 86.25 4.12 89.13 C 3.76 93.59 8.16 95.95 11.73 97.27 C 11.23 91.13 11.65 84.97 11.08 78.84 C 10.35 78.79 8.89 78.69 8.16 78.64 Z"/>
    <path fill="#593334" d=" M 3.13 80.36 C 4.79 79.74 6.42 79.00 8.16 78.64 C 8.89 78.69 10.35 78.79 11.08 78.84 C 11.65 84.97 11.23 91.13 11.73 97.27 C 8.16 95.95 3.76 93.59 4.12 89.13 C 3.62 86.25 5.60 82.65 3.13 80.36 Z"/>
    <path fill="#a18a8e" d=" M 41.88 80.02 C 42.52 79.75 43.79 79.22 44.42 78.96 C 44.21 86.34 45.49 94.12 42.58 101.14 C 41.87 98.78 40.50 96.46 40.88 93.90 C 41.35 89.28 41.38 84.63 41.88 80.02 Z"/>
    <path
        fill="#3c1c01"
        d=" M 53.74 78.71 C 57.45 78.60 61.17 78.56 64.90 78.60 C 64.98 79.09 65.14 80.08 65.22 80.57 C 65.23 81.52 65.25 83.43 65.27 84.38 C 63.47 84.30 61.67 84.19 59.87 84.16 C 60.63 83.00 61.40 81.84 62.16 80.67 C 59.44 80.49 56.72 80.32 54.02 79.98 L 53.74 78.71 Z"/>
    <path
        fill="#6b3b22"
        d=" M 49.19 79.80 C 50.51 79.73 51.82 79.65 53.14 79.58 C 53.42 81.34 53.73 83.09 54.08 84.84 C 53.71 84.72 52.97 84.50 52.59 84.39 C 52.21 84.31 51.44 84.15 51.05 84.07 C 50.64 84.22 49.81 84.51 49.39 84.66 L 48.82 84.90 L 48.82 84.09 C 48.93 82.66 49.05 81.23 49.19 79.80 Z"/>
    <path fill="#533317" d=" M 54.02 79.98 C 56.72 80.32 59.44 80.49 62.16 80.67 C 61.40 81.84 60.63 83.00 59.87 84.16 C 58.27 84.57 56.70 85.11 55.14 85.66 C 54.83 83.75 54.44 81.86 54.02 79.98 Z"/>
    <path
        fill="#694846"
        d=" M 65.22 80.57 C 66.12 86.35 66.13 92.24 67.37 97.98 C 68.24 97.59 69.12 97.21 70.00 96.83 C 69.57 95.12 69.15 93.40 68.68 91.71 C 69.98 93.45 71.46 95.05 72.92 96.67 C 73.90 96.27 74.82 95.77 75.75 95.28 C 75.72 98.04 75.96 100.80 76.50 103.51 C 73.64 103.35 70.78 103.26 67.92 103.24 C 67.47 102.27 67.02 101.29 66.57 100.32 C 66.05 101.04 65.53 101.75 65.02 102.47 C 62.74 102.29 60.47 102.12 58.19 101.95 C 57.53 98.97 57.25 95.93 56.99 92.89 C 59.59 93.64 62.30 93.82 64.98 94.01 C 65.02 93.20 65.09 91.60 65.13 90.80 C 65.21 88.66 65.26 86.52 65.27 84.38 C 65.25 83.43 65.23 81.52 65.22 80.57 Z"/>
    <path
        fill="#131929"
        d=" M 20.43 84.84 C 22.32 84.84 24.36 85.08 25.79 83.57 C 29.66 83.73 33.50 84.37 37.39 84.29 C 37.34 86.49 37.25 88.69 37.16 90.89 C 33.68 91.11 30.22 91.53 26.74 91.65 C 24.62 91.25 22.51 90.85 20.38 90.54 C 20.42 88.64 20.46 86.74 20.43 84.84 Z"/>
    <path fill="#474c57" d=" M 49.39 84.66 C 49.81 84.51 50.64 84.22 51.05 84.07 C 51.44 84.15 52.21 84.31 52.59 84.39 C 52.38 86.08 52.15 87.76 51.90 89.44 C 49.97 88.58 49.90 86.41 49.39 84.66 Z"/>
    <path fill="#131d2f" d=" M 55.14 85.66 C 56.70 85.11 58.27 84.57 59.87 84.16 C 61.67 84.19 63.47 84.30 65.27 84.38 C 65.26 86.52 65.21 88.66 65.13 90.80 C 61.97 90.72 58.81 90.68 55.64 90.66 C 55.50 88.99 55.35 87.32 55.14 85.66 Z"/>
    <path
        fill="#1e1319"
        d=" M 48.82 84.90 L 49.39 84.66 C 49.90 86.41 49.97 88.58 51.90 89.44 C 52.15 87.76 52.38 86.08 52.59 84.39 C 52.97 84.50 53.71 84.72 54.08 84.84 C 54.55 87.04 54.94 89.27 55.23 91.51 C 53.15 91.40 51.07 91.29 48.99 91.18 C 48.87 89.09 48.80 86.99 48.82 84.90 Z"/>
    <path
        fill="#5e403f"
        d=" M 71.51 86.33 C 72.62 86.09 73.73 85.85 74.84 85.61 C 75.28 88.82 75.81 92.03 75.75 95.28 C 74.82 95.77 73.90 96.27 72.92 96.67 C 71.46 95.05 69.98 93.45 68.68 91.71 C 68.03 90.25 67.39 88.79 66.75 87.32 C 67.64 87.86 68.54 88.40 69.43 88.94 C 69.38 88.44 69.29 87.44 69.24 86.94 C 69.63 88.33 70.08 89.69 70.51 91.07 C 70.85 89.49 71.18 87.91 71.51 86.33 Z"/>
    <path fill="#58301d" d=" M 48.99 91.18 C 51.07 91.29 53.15 91.40 55.23 91.51 L 54.87 92.06 C 54.24 92.95 53.58 93.82 52.93 94.69 C 51.69 94.49 50.45 94.29 49.22 94.09 C 49.16 93.36 49.05 91.91 48.99 91.18 Z"/>
    <path fill="#3f1400" d=" M 55.64 90.66 C 58.81 90.68 61.97 90.72 65.13 90.80 C 65.09 91.60 65.02 93.20 64.98 94.01 C 62.30 93.82 59.59 93.64 56.99 92.89 C 56.68 92.60 56.05 92.03 55.74 91.74 L 55.64 90.66 Z"/>
    <path fill="#614549" d=" M 52.93 94.69 C 53.58 93.82 54.24 92.95 54.87 92.06 C 55.51 94.11 56.11 96.18 56.57 98.29 C 54.25 98.21 51.94 98.13 49.63 98.05 C 49.49 96.73 49.34 95.41 49.22 94.09 C 50.45 94.29 51.69 94.49 52.93 94.69 Z"/>
    <path
        fill="#a47e6a"
        d=" M 54.87 92.06 L 55.74 91.74 C 56.05 92.03 56.68 92.60 56.99 92.89 C 57.25 95.93 57.53 98.97 58.19 101.95 C 60.47 102.12 62.74 102.29 65.02 102.47 C 65.53 101.75 66.05 101.04 66.57 100.32 C 67.02 101.29 67.47 102.27 67.92 103.24 C 61.58 103.20 55.25 102.71 48.91 103.04 L 48.64 103.04 C 44.94 103.00 41.21 103.30 37.52 102.81 C 39.12 102.45 40.73 102.12 42.35 101.88 C 44.39 101.79 46.44 101.82 48.48 101.83 C 48.87 101.82 49.63 101.82 50.02 101.82 C 52.40 102.05 54.79 102.10 57.18 102.13 C 56.98 100.85 56.81 99.56 56.57 98.29 C 56.11 96.18 55.51 94.11 54.87 92.06 Z"/>
    <path fill="#74544d" d=" M 49.63 98.05 C 51.94 98.13 54.25 98.21 56.57 98.29 C 56.81 99.56 56.98 100.85 57.18 102.13 C 54.79 102.10 52.40 102.05 50.02 101.82 C 49.90 100.56 49.77 99.30 49.63 98.05 Z"/>
    <path
        fill="#abbeda"
        d=" M 48.64 103.04 L 48.91 103.04 C 49.02 103.38 49.22 104.06 49.32 104.40 C 49.47 104.99 49.77 106.16 49.92 106.75 C 58.42 107.03 67.01 106.43 75.43 107.96 L 74.27 107.96 C 71.75 108.00 69.22 108.05 66.69 108.02 L 66.02 108.01 C 63.68 107.97 61.34 107.91 59.01 107.86 C 58.54 107.85 57.62 107.83 57.15 107.82 C 54.71 107.76 52.27 107.73 49.83 107.72 C 49.47 107.72 48.73 107.72 48.37 107.72 C 45.94 107.73 43.52 107.72 41.10 107.73 C 39.72 107.72 38.34 107.70 36.96 107.69 C 37.08 107.11 37.31 105.95 37.42 105.38 C 40.77 105.86 44.07 106.67 47.46 106.83 C 47.85 105.56 48.25 104.30 48.64 103.04 Z"/>
    <path fill="#ebf3fa" d=" M 49.32 104.40 C 57.83 103.24 66.42 104.68 74.97 104.32 C 75.64 105.61 76.32 106.89 77.01 108.18 C 76.62 108.12 75.82 108.02 75.43 107.96 C 67.01 106.43 58.42 107.03 49.92 106.75 C 49.77 106.16 49.47 104.99 49.32 104.40 Z"/>
    <path
        fill="#7b6965"
        d=" M 36.96 107.69 C 38.34 107.70 39.72 107.72 41.10 107.73 L 40.93 108.59 C 39.36 114.25 40.62 120.13 40.07 125.86 C 39.72 126.20 39.02 126.87 38.67 127.20 C 38.49 130.87 38.44 134.55 38.79 138.22 C 38.85 138.87 38.96 140.16 39.01 140.81 C 38.77 140.90 38.29 141.09 38.05 141.18 L 36.53 140.65 C 36.85 129.67 36.65 118.67 36.96 107.69 Z"/>
    <path fill="#3f1400" d=" M 41.10 107.73 C 43.52 107.72 45.94 107.73 48.37 107.72 C 47.32 116.53 47.83 125.40 47.65 134.24 C 47.00 125.54 47.53 116.81 47.65 108.10 C 45.37 108.44 43.10 108.83 40.85 109.31 L 40.93 108.59 L 41.10 107.73 Z"/>
    <path
        fill="#a07c74"
        d=" M 48.37 107.72 C 48.73 107.72 49.47 107.72 49.83 107.72 L 49.92 108.75 C 50.10 112.86 50.05 116.97 50.03 121.08 C 50.02 123.18 50.01 125.27 50.03 127.37 C 50.06 131.89 50.10 136.41 49.91 140.93 C 49.37 140.94 48.29 140.97 47.75 140.99 C 48.36 139.45 47.97 137.78 47.81 136.20 C 47.77 135.71 47.69 134.73 47.65 134.24 C 47.83 125.40 47.32 116.53 48.37 107.72 Z"/>
    <path
        fill="#7d4f45"
        d=" M 49.83 107.72 C 52.27 107.73 54.71 107.76 57.15 107.82 L 57.17 108.88 C 56.39 108.92 54.84 109.00 54.07 109.04 C 53.91 110.33 53.75 111.63 53.59 112.93 C 53.30 111.79 53.00 110.65 52.70 109.51 C 52.01 109.32 50.61 108.94 49.92 108.75 L 49.83 107.72 Z"/>
    <path fill="#ac8a87" d=" M 57.15 107.82 C 57.62 107.83 58.54 107.85 59.01 107.86 C 58.37 119.08 59.80 130.32 58.70 141.52 L 58.42 141.49 L 57.10 141.31 C 56.76 130.50 57.50 119.69 57.17 108.88 L 57.15 107.82 Z"/>
    <path fill="#9a6754" d=" M 59.01 107.86 C 61.34 107.91 63.68 107.97 66.02 108.01 C 65.61 118.99 66.23 129.96 65.94 140.94 C 63.52 141.07 61.11 141.24 58.70 141.52 C 59.80 130.32 58.37 119.08 59.01 107.86 Z"/>
    <path
        fill="#be9e91"
        d=" M 66.02 108.01 L 66.69 108.02 L 66.81 108.92 C 67.25 119.62 67.53 130.36 67.24 141.08 C 69.82 141.21 72.41 141.32 75.00 141.23 L 75.92 141.19 L 77.31 141.12 L 77.30 142.16 C 75.34 142.16 73.38 142.18 71.42 142.16 C 67.18 142.07 62.92 142.03 58.70 141.52 C 61.11 141.24 63.52 141.07 65.94 140.94 C 66.23 129.96 65.61 118.99 66.02 108.01 Z"/>
    <path fill="#74575f" d=" M 66.69 108.02 C 69.22 108.05 71.75 108.00 74.27 107.96 C 74.21 109.84 74.15 111.72 74.14 113.61 C 73.55 112.20 72.91 110.82 72.28 109.44 C 70.45 109.29 68.63 109.14 66.81 108.92 L 66.69 108.02 Z"/>
    <path
        fill="#8e838a"
        d=" M 74.27 107.96 L 75.43 107.96 C 75.82 108.02 76.62 108.12 77.01 108.18 C 77.15 119.16 77.09 130.14 77.31 141.12 L 75.92 141.19 C 76.03 135.10 76.06 129.00 75.53 122.93 C 75.26 124.37 75.00 125.82 74.77 127.27 C 74.42 122.72 74.31 118.16 74.14 113.61 C 74.15 111.72 74.21 109.84 74.27 107.96 Z"/>
    <path
        fill="#c1cadf"
        d=" M 40.07 125.86 C 40.62 120.13 39.36 114.25 40.93 108.59 L 40.85 109.31 C 40.65 115.22 39.64 121.48 41.92 127.13 C 40.93 131.89 41.22 136.75 41.33 141.56 C 47.01 142.13 52.79 142.76 58.42 141.49 L 58.70 141.52 C 62.92 142.03 67.18 142.07 71.42 142.16 L 70.43 142.67 C 69.22 142.84 68.01 143.02 66.81 143.22 L 66.79 143.63 C 66.79 144.15 66.78 145.19 66.78 145.71 C 67.29 155.56 67.34 165.41 67.39 175.27 C 67.19 175.27 66.80 175.28 66.61 175.28 C 66.61 166.06 66.69 156.84 66.27 147.62 C 66.25 146.08 66.23 144.55 66.23 143.01 C 63.80 143.05 61.37 143.10 58.94 143.11 C 58.47 143.10 57.53 143.09 57.06 143.09 C 54.63 143.04 52.19 142.94 49.76 142.84 C 49.38 142.82 48.61 142.79 48.23 142.77 C 45.99 142.68 43.75 142.60 41.50 142.52 C 41.47 153.26 42.16 164.02 41.41 174.75 C 43.60 174.97 45.80 175.19 47.99 175.43 L 48.61 175.51 L 49.63 175.77 L 48.42 175.86 C 46.10 176.04 43.78 176.15 41.45 176.24 C 41.30 180.74 41.28 185.24 41.49 189.74 C 41.43 190.30 41.37 190.87 41.31 191.44 C 41.20 191.76 40.98 192.40 40.88 192.72 C 40.64 187.21 40.83 181.69 40.86 176.18 C 39.83 176.21 37.75 176.27 36.71 176.30 C 36.65 179.33 36.53 182.37 36.39 185.40 C 35.66 177.30 36.16 169.13 36.03 161.00 C 36.14 156.57 35.87 152.10 36.65 147.72 C 36.89 156.84 36.44 165.96 36.77 175.07 C 37.73 175.23 39.66 175.54 40.62 175.70 C 41.40 171.50 41.43 167.22 41.34 162.97 C 40.36 162.54 39.38 162.12 38.40 161.69 C 38.42 161.19 38.44 160.20 38.45 159.71 C 39.09 159.62 40.38 159.43 41.02 159.34 C 41.16 154.21 41.52 149.07 41.10 143.94 C 40.94 143.66 40.62 143.11 40.46 142.84 L 40.04 142.14 C 39.26 142.02 37.72 141.77 36.94 141.65 L 38.05 141.18 C 38.29 141.09 38.77 140.90 39.01 140.81 C 39.34 140.88 40.00 141.02 40.32 141.09 C 40.21 136.97 41.52 132.30 39.07 128.63 C 38.71 131.81 38.65 135.02 38.79 138.22 C 38.44 134.55 38.49 130.87 38.67 127.20 C 39.02 126.87 39.72 126.20 40.07 125.86 Z"/>
    <path
        fill="#99654e"
        d=" M 40.85 109.31 C 43.10 108.83 45.37 108.44 47.65 108.10 C 47.53 116.81 47.00 125.54 47.65 134.24 C 47.69 134.73 47.77 135.71 47.81 136.20 C 46.65 137.52 45.97 139.33 46.54 141.08 C 44.81 141.22 43.07 141.38 41.33 141.56 C 41.22 136.75 40.93 131.89 41.92 127.13 C 39.64 121.48 40.65 115.22 40.85 109.31 Z"/>
    <path
        fill="#996753"
        d=" M 49.92 108.75 C 50.61 108.94 52.01 109.32 52.70 109.51 C 53.00 110.65 53.30 111.79 53.59 112.93 C 53.75 111.63 53.91 110.33 54.07 109.04 C 54.84 109.00 56.39 108.92 57.17 108.88 C 57.50 119.69 56.76 130.50 57.10 141.31 C 54.72 141.01 52.31 140.92 49.91 140.93 C 50.10 136.41 50.06 131.89 50.03 127.37 C 51.98 126.11 53.74 124.56 55.26 122.80 C 53.52 122.22 51.78 121.65 50.03 121.08 C 50.05 116.97 50.10 112.86 49.92 108.75 Z"/>
    <path
        fill="#9b6c5e"
        d=" M 66.81 108.92 C 68.63 109.14 70.45 109.29 72.28 109.44 C 72.91 110.82 73.55 112.20 74.14 113.61 C 74.31 118.16 74.42 122.72 74.77 127.27 C 74.98 131.92 75.05 136.57 75.00 141.23 C 72.41 141.32 69.82 141.21 67.24 141.08 C 67.53 130.36 67.25 119.62 66.81 108.92 Z"/>
    <path fill="#7f4e44" d=" M 50.03 121.08 C 51.78 121.65 53.52 122.22 55.26 122.80 C 53.74 124.56 51.98 126.11 50.03 127.37 C 50.01 125.27 50.02 123.18 50.03 121.08 Z"/>
    <path fill="#a69ca6" d=" M 75.53 122.93 C 76.06 129.00 76.03 135.10 75.92 141.19 L 75.00 141.23 C 75.05 136.57 74.98 131.92 74.77 127.27 C 75.00 125.82 75.26 124.37 75.53 122.93 Z"/>
    <path fill="#703c1e" d=" M 39.07 128.63 C 41.52 132.30 40.21 136.97 40.32 141.09 C 40.00 141.02 39.34 140.88 39.01 140.81 C 38.96 140.16 38.85 138.87 38.79 138.22 C 38.65 135.02 38.71 131.81 39.07 128.63 Z"/>
    <path fill="#7d4d38" d=" M 46.54 141.08 C 45.97 139.33 46.65 137.52 47.81 136.20 C 47.97 137.78 48.36 139.45 47.75 140.99 C 47.45 141.01 46.85 141.06 46.54 141.08 Z"/>
    <path
        fill="#c3aa8b"
        d=" M 41.33 141.56 C 43.07 141.38 44.81 141.22 46.54 141.08 C 46.85 141.06 47.45 141.01 47.75 140.99 C 48.29 140.97 49.37 140.94 49.91 140.93 C 52.31 140.92 54.72 141.01 57.10 141.31 L 58.42 141.49 C 52.79 142.76 47.01 142.13 41.33 141.56 Z"/>
    <path
        fill="#7f6354"
        d=" M 36.73 142.85 C 37.66 142.85 39.53 142.84 40.46 142.84 C 40.62 143.11 40.94 143.66 41.10 143.94 C 41.52 149.07 41.16 154.21 41.02 159.34 C 40.38 159.43 39.09 159.62 38.45 159.71 C 38.44 160.20 38.42 161.19 38.40 161.69 C 39.38 162.12 40.36 162.54 41.34 162.97 C 41.43 167.22 41.40 171.50 40.62 175.70 C 39.66 175.54 37.73 175.23 36.77 175.07 C 36.44 165.96 36.89 156.84 36.65 147.72 C 36.65 146.09 36.70 144.47 36.73 142.85 Z"/>
    <path fill="#95634c" d=" M 41.50 142.52 C 43.75 142.60 45.99 142.68 48.23 142.77 C 48.22 153.66 48.06 164.55 47.99 175.43 C 45.80 175.19 43.60 174.97 41.41 174.75 C 42.16 164.02 41.47 153.26 41.50 142.52 Z"/>
    <path
        fill="#a98881"
        d=" M 48.23 142.77 C 48.61 142.79 49.38 142.82 49.76 142.84 C 49.78 143.71 49.82 145.44 49.84 146.31 C 49.81 155.63 49.26 164.96 49.86 174.28 C 52.26 174.33 54.65 174.37 57.04 174.42 C 57.46 166.73 56.94 159.03 56.92 151.34 C 56.93 148.59 57.01 145.84 57.06 143.09 C 57.53 143.09 58.47 143.10 58.94 143.11 C 58.95 143.54 58.97 144.42 58.97 144.86 C 59.01 154.90 59.08 164.94 59.00 174.98 C 55.54 175.19 52.07 175.35 48.61 175.51 L 47.99 175.43 C 48.06 164.55 48.22 153.66 48.23 142.77 Z"/>
    <path fill="#82564e" d=" M 49.76 142.84 C 52.19 142.94 54.63 143.04 57.06 143.09 C 57.01 145.84 56.93 148.59 56.92 151.34 C 56.54 148.99 56.03 146.67 55.58 144.34 C 53.66 145.00 51.75 145.66 49.84 146.31 C 49.82 145.44 49.78 143.71 49.76 142.84 Z"/>
    <path fill="#835d58" d=" M 58.94 143.11 C 61.37 143.10 63.80 143.05 66.23 143.01 C 66.23 144.55 66.25 146.08 66.27 147.62 C 64.69 146.64 63.11 145.66 61.53 144.68 C 60.68 144.74 59.83 144.80 58.97 144.86 C 58.97 144.42 58.95 143.54 58.94 143.11 Z"/>
    <path
        fill="#9a8c97"
        d=" M 66.81 143.22 C 68.01 143.02 69.22 142.84 70.43 142.67 C 72.60 142.80 74.76 143.03 76.94 143.14 C 75.73 145.59 76.03 148.35 76.14 150.98 C 76.49 157.01 76.02 163.05 76.49 169.07 C 76.92 165.98 77.31 162.88 77.52 159.77 C 78.00 164.90 77.91 170.06 78.06 175.21 C 77.35 175.17 75.92 175.08 75.21 175.04 C 75.10 173.30 74.98 171.56 74.92 169.83 C 75.05 163.61 74.98 157.38 75.00 151.16 C 75.00 148.74 75.00 146.32 74.99 143.90 C 72.26 143.76 69.53 143.67 66.79 143.63 L 66.81 143.22 Z"/>
    <path fill="#986552" d=" M 49.84 146.31 C 51.75 145.66 53.66 145.00 55.58 144.34 C 56.03 146.67 56.54 148.99 56.92 151.34 C 56.94 159.03 57.46 166.73 57.04 174.42 C 54.65 174.37 52.26 174.33 49.86 174.28 C 49.26 164.96 49.81 155.63 49.84 146.31 Z"/>
    <path fill="#9f6f5d" d=" M 58.97 144.86 C 59.83 144.80 60.68 144.74 61.53 144.68 C 63.11 145.66 64.69 146.64 66.27 147.62 C 66.69 156.84 66.61 166.06 66.61 175.28 C 64.07 175.19 61.53 175.10 59.00 174.98 C 59.08 164.94 59.01 154.90 58.97 144.86 Z"/>
    <path
        fill="#956e66"
        d=" M 66.79 143.63 C 69.53 143.67 72.26 143.76 74.99 143.90 C 75.00 146.32 75.00 148.74 75.00 151.16 C 73.82 149.52 72.64 147.89 71.46 146.26 C 70.45 147.02 69.43 147.78 68.42 148.54 C 67.86 147.61 67.31 146.66 66.78 145.71 C 66.78 145.19 66.79 144.15 66.79 143.63 Z"/>
    <path fill="#85757f" d=" M 76.14 150.98 C 76.03 148.35 75.73 145.59 76.94 143.14 C 77.75 148.64 77.39 154.23 77.52 159.77 C 77.31 162.88 76.92 165.98 76.49 169.07 C 76.02 163.05 76.49 157.01 76.14 150.98 Z"/>
    <path
        fill="#9f7365"
        d=" M 66.78 145.71 C 67.31 146.66 67.86 147.61 68.42 148.54 C 69.43 147.78 70.45 147.02 71.46 146.26 C 72.64 147.89 73.82 149.52 75.00 151.16 C 74.98 157.38 75.05 163.61 74.92 169.83 C 73.89 171.70 72.74 173.49 71.62 175.30 C 70.21 175.29 68.80 175.28 67.39 175.27 C 67.34 165.41 67.29 155.56 66.78 145.71 Z"/>
    <path fill="#8f635c" d=" M 67.93 151.52 C 69.31 151.94 70.70 152.37 72.08 152.81 C 71.57 153.74 71.85 156.11 70.21 155.68 C 68.07 155.57 67.99 153.12 67.93 151.52 Z"/>
    <path fill="#906658" d=" M 71.62 175.30 C 72.74 173.49 73.89 171.70 74.92 169.83 C 74.98 171.56 75.10 173.30 75.21 175.04 C 74.31 175.10 72.52 175.24 71.62 175.30 Z"/>
    <path
        fill="#956451"
        d=" M 41.45 176.24 C 43.78 176.15 46.10 176.04 48.42 175.86 C 48.38 186.17 48.10 196.48 48.67 206.78 C 45.98 206.78 43.28 206.77 40.59 206.75 C 40.56 203.22 40.84 199.70 41.15 196.19 C 41.28 194.61 41.33 193.02 41.31 191.44 C 41.37 190.87 41.43 190.30 41.49 189.74 C 41.28 185.24 41.30 180.74 41.45 176.24 Z"/>
    <path
        fill="#d2dbee"
        d=" M 48.42 175.86 L 49.63 175.77 C 52.68 175.62 55.74 175.56 58.80 175.51 L 58.84 176.15 C 59.47 186.36 57.73 196.58 59.00 206.77 C 61.60 206.80 64.20 206.84 66.80 206.90 L 67.56 206.91 C 70.42 206.96 73.28 206.99 76.15 207.01 C 76.17 203.41 76.17 199.80 76.16 196.19 C 76.15 194.07 76.18 191.95 76.16 189.83 L 76.95 190.72 C 76.65 196.24 76.76 201.78 76.85 207.31 C 77.12 207.46 77.66 207.76 77.93 207.90 C 75.32 216.19 78.17 225.14 76.48 233.60 C 76.48 232.03 76.46 230.47 76.44 228.90 C 76.34 222.10 76.28 215.29 76.36 208.49 C 73.49 208.35 70.61 208.23 67.73 208.12 C 67.64 213.94 67.56 219.76 67.89 225.57 C 67.95 229.44 67.81 233.30 67.59 237.17 L 67.57 237.49 L 67.27 236.37 C 67.17 233.46 67.29 230.54 67.28 227.63 C 67.28 227.33 67.27 226.74 67.26 226.44 C 67.07 220.38 67.14 214.31 67.23 208.25 C 64.40 208.20 61.57 208.14 58.75 208.07 C 58.43 208.06 57.79 208.05 57.46 208.04 C 54.58 207.98 51.69 207.98 48.81 208.02 C 48.63 217.72 48.87 227.43 48.59 237.13 L 48.57 237.46 C 47.94 227.56 48.40 217.63 48.42 207.71 C 45.87 207.69 43.32 207.65 40.78 207.62 C 40.48 213.53 40.34 219.46 41.31 225.32 C 40.75 225.32 39.63 225.33 39.06 225.33 C 38.84 224.72 38.39 223.50 38.16 222.88 C 38.82 222.31 39.48 221.75 40.14 221.19 C 40.10 216.77 40.23 212.36 40.34 207.95 C 39.01 207.82 37.68 207.69 36.35 207.56 L 35.63 207.48 L 36.33 207.44 C 37.32 207.40 39.28 207.30 40.27 207.26 C 40.26 203.23 40.38 199.20 41.11 195.24 C 41.12 195.47 41.14 195.95 41.15 196.19 C 40.84 199.70 40.56 203.22 40.59 206.75 C 43.28 206.77 45.98 206.78 48.67 206.78 C 48.10 196.48 48.38 186.17 48.42 175.86 Z"/>
    <path
        fill="#c1cadf"
        d=" M 58.80 175.51 C 62.07 175.93 65.90 174.94 68.81 176.25 L 69.04 176.67 C 66.78 177.23 67.47 179.45 67.31 181.05 C 67.52 189.67 67.47 198.29 67.56 206.91 L 66.80 206.90 C 67.48 196.76 66.09 186.61 66.89 176.47 C 64.21 176.37 61.52 176.32 58.84 176.15 L 58.80 175.51 Z"/>
    <path
        fill="#aba7b5"
        d=" M 68.81 176.25 C 71.36 175.79 73.94 176.29 76.51 176.33 C 77.40 181.08 77.62 185.92 76.95 190.72 L 76.16 189.83 C 75.85 186.98 75.55 184.10 74.49 181.42 C 74.64 180.28 74.76 179.14 74.90 178.01 C 73.06 177.86 71.22 177.72 69.38 177.55 C 69.30 177.33 69.12 176.89 69.04 176.67 L 68.81 176.25 Z"/>
    <path fill="#756164" d=" M 36.71 176.30 C 37.75 176.27 39.83 176.21 40.86 176.18 C 40.83 181.69 40.64 187.21 40.88 192.72 C 39.72 192.77 37.40 192.88 36.24 192.94 C 36.28 190.42 36.29 187.91 36.39 185.40 C 36.53 182.37 36.65 179.33 36.71 176.30 Z"/>
    <path fill="#996a57" d=" M 48.75 176.27 C 52.02 176.06 55.30 176.10 58.56 176.38 C 58.39 181.30 58.91 186.26 58.08 191.15 C 57.08 196.29 58.36 201.48 58.67 206.63 C 55.51 206.74 52.36 206.78 49.21 206.78 C 48.56 196.62 48.67 186.44 48.75 176.27 Z"/>
    <path fill="#9e6f5f" d=" M 58.84 176.15 C 61.52 176.32 64.21 176.37 66.89 176.47 C 66.09 186.61 67.48 196.76 66.80 206.90 C 64.20 206.84 61.60 206.80 59.00 206.77 C 57.73 196.58 59.47 186.36 58.84 176.15 Z"/>
    <path
        fill="#aa7c6d"
        d=" M 67.31 181.05 C 67.47 179.45 66.78 177.23 69.04 176.67 C 69.12 176.89 69.30 177.33 69.38 177.55 C 70.05 179.45 70.62 181.37 71.22 183.29 C 71.57 184.40 71.95 185.50 72.32 186.61 C 72.86 186.05 73.40 185.49 73.95 184.94 C 73.84 188.92 73.69 192.89 73.53 196.87 C 74.41 196.64 75.28 196.42 76.16 196.19 C 76.17 199.80 76.17 203.41 76.15 207.01 C 73.28 206.99 70.42 206.96 67.56 206.91 C 67.47 198.29 67.52 189.67 67.31 181.05 Z"/>
    <path fill="#826e70" d=" M 76.51 176.33 C 78.68 176.89 77.91 179.37 78.10 181.04 C 77.97 189.44 78.36 197.83 78.18 206.22 C 77.85 206.50 77.18 207.04 76.85 207.31 C 76.76 201.78 76.65 196.24 76.95 190.72 C 77.62 185.92 77.40 181.08 76.51 176.33 Z"/>
    <path fill="#d2dbee" d=" M 69.38 177.55 C 71.22 177.72 73.06 177.86 74.90 178.01 C 74.76 179.14 74.64 180.28 74.49 181.42 C 73.42 182.08 72.33 182.70 71.22 183.29 C 70.62 181.37 70.05 179.45 69.38 177.55 Z"/>
    <path
        fill="#936458"
        d=" M 74.49 181.42 C 75.55 184.10 75.85 186.98 76.16 189.83 C 76.18 191.95 76.15 194.07 76.16 196.19 C 75.28 196.42 74.41 196.64 73.53 196.87 C 73.69 192.89 73.84 188.92 73.95 184.94 C 73.40 185.49 72.86 186.05 72.32 186.61 C 71.95 185.50 71.57 184.40 71.22 183.29 C 72.33 182.70 73.42 182.08 74.49 181.42 Z"/>
    <path fill="#826e70" d=" M 36.24 193.12 L 38.69 193.01 L 38.51 195.50 C 39.16 195.43 40.46 195.30 41.11 195.24 C 40.38 199.20 40.26 203.23 40.27 207.26 C 39.28 207.30 37.32 207.40 36.33 207.44 C 36.00 202.67 36.18 197.89 36.24 193.12 Z"/>
    <path
        fill="#766666"
        d=" M 36.35 207.56 C 37.68 207.69 39.01 207.82 40.34 207.95 C 40.23 212.36 40.10 216.77 40.14 221.19 C 39.48 221.75 38.82 222.31 38.16 222.88 C 38.39 223.50 38.84 224.72 39.06 225.33 C 39.50 229.40 39.31 233.50 39.17 237.58 C 38.34 237.52 36.69 237.38 35.87 237.32 C 36.03 227.40 36.18 217.48 36.35 207.56 Z"/>
    <path
        fill="#926553"
        d=" M 40.78 207.62 C 43.32 207.65 45.87 207.69 48.42 207.71 C 48.40 217.63 47.94 227.56 48.57 237.46 C 45.44 237.36 42.30 237.43 39.17 237.58 C 39.31 233.50 39.50 229.40 39.06 225.33 C 39.63 225.33 40.75 225.32 41.31 225.32 C 40.34 219.46 40.48 213.53 40.78 207.62 Z"/>
    <path fill="#9a6c5a" d=" M 48.81 208.02 C 51.69 207.98 54.58 207.98 57.46 208.04 C 57.48 217.83 57.61 227.62 57.57 237.41 C 54.58 237.21 51.58 237.22 48.59 237.13 C 48.87 227.43 48.63 217.72 48.81 208.02 Z"/>
    <path fill="#bea39d" d=" M 57.46 208.04 C 57.79 208.05 58.43 208.06 58.75 208.07 C 58.86 210.32 58.98 212.58 59.12 214.85 C 58.91 222.21 59.12 229.58 58.90 236.94 C 58.57 237.05 57.90 237.29 57.57 237.41 C 57.61 227.62 57.48 217.83 57.46 208.04 Z"/>
    <path
        fill="#936458"
        d=" M 58.75 208.07 C 61.57 208.14 64.40 208.20 67.23 208.25 C 67.14 214.31 67.07 220.38 67.26 226.44 C 66.08 225.89 64.89 225.39 63.70 224.88 C 63.92 221.77 64.65 218.32 62.51 215.68 C 61.98 216.18 60.91 217.18 60.38 217.68 C 59.95 216.74 59.52 215.79 59.12 214.85 C 58.98 212.58 58.86 210.32 58.75 208.07 Z"/>
    <path
        fill="#a5796b"
        d=" M 67.73 208.12 C 70.61 208.23 73.49 208.35 76.36 208.49 C 76.28 215.29 76.34 222.10 76.44 228.90 C 75.94 228.78 74.94 228.53 74.43 228.41 C 74.19 230.56 73.94 232.70 73.68 234.85 C 73.44 234.28 72.97 233.14 72.74 232.57 C 71.95 232.56 71.16 232.55 70.37 232.54 C 69.54 230.22 68.67 227.91 67.89 225.57 C 67.56 219.76 67.64 213.94 67.73 208.12 Z"/>
    <path fill="#8e838a" d=" M 76.48 233.60 C 78.17 225.14 75.32 216.19 77.93 207.90 C 78.89 211.87 78.48 215.96 78.66 220.00 C 78.88 225.75 79.11 231.50 79.04 237.26 C 78.25 237.27 76.69 237.30 75.90 237.31 C 76.10 236.07 76.29 234.84 76.48 233.60 Z"/>
    <path
        fill="#a57867"
        d=" M 59.12 214.85 C 59.52 215.79 59.95 216.74 60.38 217.68 C 60.91 217.18 61.98 216.18 62.51 215.68 C 64.65 218.32 63.92 221.77 63.70 224.88 C 64.89 225.39 66.08 225.89 67.26 226.44 C 67.27 226.74 67.28 227.33 67.28 227.63 C 65.94 228.17 64.56 228.66 63.29 229.35 C 61.80 231.40 63.31 233.83 63.85 235.94 C 64.70 236.05 66.42 236.26 67.27 236.37 L 67.57 237.49 C 64.68 237.27 61.79 237.18 58.90 236.94 C 59.12 229.58 58.91 222.21 59.12 214.85 Z"/>
    <path
        fill="#916863"
        d=" M 67.89 225.57 C 68.67 227.91 69.54 230.22 70.37 232.54 C 71.16 232.55 71.95 232.56 72.74 232.57 C 72.97 233.14 73.44 234.28 73.68 234.85 C 73.94 232.70 74.19 230.56 74.43 228.41 C 74.94 228.53 75.94 228.78 76.44 228.90 C 76.46 230.47 76.48 232.03 76.48 233.60 C 76.29 234.84 76.10 236.07 75.90 237.31 C 73.13 237.30 70.36 237.27 67.59 237.17 C 67.81 233.30 67.95 229.44 67.89 225.57 Z"/>
    <path fill="#92695d" d=" M 63.29 229.35 C 64.56 228.66 65.94 228.17 67.28 227.63 C 67.29 230.54 67.17 233.46 67.27 236.37 C 66.42 236.26 64.70 236.05 63.85 235.94 C 63.31 233.83 61.80 231.40 63.29 229.35 Z"/>
    <path
        fill="#b3b1c2"
        d=" M 58.24 237.84 C 64.68 237.83 71.11 238.13 77.54 238.49 C 77.69 242.54 77.81 246.60 77.52 250.65 L 76.73 249.50 C 76.58 247.39 76.56 245.28 76.56 243.17 C 74.43 244.23 72.15 245.88 69.73 244.67 C 72.59 243.83 75.09 242.19 77.40 240.34 C 73.92 239.86 70.43 239.48 66.94 239.06 C 66.91 239.59 66.84 240.66 66.81 241.19 C 66.62 240.75 66.24 239.88 66.05 239.45 L 65.92 239.16 C 63.62 238.54 61.17 238.41 58.88 239.11 L 58.24 237.84 Z"/>
    <path
        fill="#7a6d6e"
        d=" M 35.86 238.47 C 36.81 238.35 38.70 238.12 39.65 238.00 C 39.31 242.65 39.18 247.32 39.72 251.96 C 39.15 251.89 37.99 251.74 37.42 251.67 C 37.82 251.98 38.63 252.62 39.03 252.94 L 37.90 254.22 C 37.70 254.45 37.30 254.91 37.10 255.14 C 37.64 255.73 38.20 256.30 38.77 256.87 C 40.05 259.64 39.10 262.99 39.34 265.99 C 38.47 265.97 36.75 265.94 35.89 265.92 C 35.76 256.77 35.88 247.62 35.86 238.47 Z"/>
    <path
        fill="#956553"
        d=" M 39.83 250.92 C 39.58 246.76 39.35 242.56 40.11 238.43 C 40.42 238.90 41.05 239.83 41.36 240.30 C 41.72 240.02 42.46 239.46 42.82 239.18 C 44.50 239.33 46.18 239.47 47.86 239.58 C 48.94 248.17 47.85 256.95 48.44 265.60 C 45.60 266.79 42.55 266.73 39.62 265.95 C 39.63 262.60 39.38 259.22 39.78 255.88 L 39.90 255.06 C 40.28 254.84 41.04 254.39 41.43 254.16 C 41.44 253.69 41.45 252.74 41.46 252.26 C 41.05 251.93 40.24 251.26 39.83 250.92 Z"/>
    <path fill="#131929" d=" M 40.11 238.43 C 42.66 238.71 45.51 237.86 47.84 239.22 L 47.86 239.58 C 46.18 239.47 44.50 239.33 42.82 239.18 C 42.46 239.46 41.72 240.02 41.36 240.30 C 41.05 239.83 40.42 238.90 40.11 238.43 Z"/>
    <path
        fill="#946455"
        d=" M 49.06 238.99 L 49.58 238.18 C 52.49 238.12 55.40 238.28 58.31 238.51 C 56.23 240.31 53.44 240.34 50.86 240.58 C 51.19 248.79 53.78 256.76 54.91 264.89 C 52.81 265.12 50.71 265.36 48.62 265.64 C 48.78 257.39 48.74 249.14 48.61 240.90 C 48.73 240.42 48.95 239.47 49.06 238.99 Z"/>
    <path fill="#a2705c" d=" M 58.31 238.51 C 58.17 247.60 58.29 256.69 58.15 265.79 C 54.98 266.28 51.69 266.92 48.62 265.64 C 50.71 265.36 52.81 265.12 54.91 264.89 C 53.78 256.76 51.19 248.79 50.86 240.58 C 53.44 240.34 56.23 240.31 58.31 238.51 Z"/>
    <path fill="#7a504a" d=" M 58.88 239.11 C 61.17 238.41 63.62 238.54 65.92 239.16 L 66.05 239.45 C 63.71 240.14 61.19 240.16 58.85 239.46 L 58.88 239.11 Z"/>
    <path
        fill="#edf3fd"
        d=" M 66.94 239.06 C 70.43 239.48 73.92 239.86 77.40 240.34 C 75.09 242.19 72.59 243.83 69.73 244.67 C 69.29 244.52 68.41 244.22 67.97 244.08 C 67.82 243.76 67.52 243.13 67.37 242.82 C 67.23 242.41 66.95 241.60 66.81 241.19 C 66.84 240.66 66.91 239.59 66.94 239.06 Z"/>
    <path fill="#85767e" d=" M 77.54 238.49 C 79.75 238.93 78.81 241.48 79.12 243.01 C 79.03 250.72 79.34 258.42 79.44 266.12 L 77.65 266.07 C 77.47 260.93 77.36 255.78 77.52 250.65 C 77.81 246.60 77.69 242.54 77.54 238.49 Z"/>
    <path
        fill="#a47363"
        d=" M 58.85 239.46 C 61.19 240.16 63.71 240.14 66.05 239.45 C 66.24 239.88 66.62 240.75 66.81 241.19 C 66.95 241.60 67.23 242.41 67.37 242.82 C 67.26 250.57 67.65 258.32 67.64 266.07 C 64.64 265.95 61.64 265.91 58.63 265.93 C 58.77 257.11 58.48 248.28 58.85 239.46 Z"/>
    <path
        fill="#a07368"
        d=" M 69.73 244.67 C 72.15 245.88 74.43 244.23 76.56 243.17 C 76.56 245.28 76.58 247.39 76.73 249.50 C 76.98 255.06 76.91 260.62 77.20 266.18 C 74.23 266.14 71.27 266.15 68.31 266.24 C 68.35 258.84 67.21 251.47 67.97 244.08 C 68.41 244.22 69.29 244.52 69.73 244.67 Z"/>
    <path fill="#5d4d4b" d=" M 37.10 255.14 C 37.30 254.91 37.70 254.45 37.90 254.22 C 38.40 254.43 39.40 254.85 39.90 255.06 L 39.78 255.88 C 39.53 256.13 39.02 256.62 38.77 256.87 C 38.20 256.30 37.64 255.73 37.10 255.14 Z"/>
    <path fill="#8b8a89" d=" M 36.57 267.15 C 37.82 266.16 38.69 266.44 39.18 268.00 L 36.84 268.00 L 36.57 267.15 Z"/>
    <path fill="#857a7c" d=" M 40.16 267.58 C 42.60 266.44 46.05 266.42 48.29 268.00 L 39.83 268.00 L 40.16 267.58 Z"/>
    <path fill="#8a7f86" d=" M 48.99 267.58 C 51.91 266.56 55.45 266.49 58.22 268.00 L 48.84 268.00 L 48.99 267.58 Z"/>
    <path fill="#9a8c97" d=" M 58.72 268.00 C 60.01 267.11 61.44 266.45 63.05 266.76 C 68.55 267.13 74.11 266.98 79.55 268.00 L 58.72 268.00 Z"/>
</svg>